<svg width="28" height="22" viewBox="0 0 28 22" fill="none" xmlns="http://www.w3.org/2000/svg">
<path d="M27.1736 1.10491C25.4771 0.30692 23.7806 0 22.084 0C16.6979 0 11.3021 3.0633 5.91597 3.0633C4.56507 3.0633 3.21465 2.86687 1.86375 2.38808C1.7116 2.33259 1.55847 2.30804 1.41118 2.30804C0.65625 2.30804 0 2.96509 0 3.86964V19.4562C0 20.076 0.317187 20.6594 0.825903 20.899C2.52097 21.6955 4.22188 22 5.91597 22C11.3021 22 16.6931 18.9367 22.084 18.9367C23.4349 18.9367 24.7853 19.1331 26.1362 19.6119C26.2894 19.6672 26.4425 19.6917 26.5902 19.6917C27.3438 19.692 28 19.0339 28 18.1254V2.54768C28 1.92746 27.684 1.34455 27.1736 1.10491ZM25.6667 5.85357C24.1354 5.65714 22.9444 4.35089 22.9444 2.75C22.9444 2.64152 22.9663 2.54071 22.9773 2.43557C23.9167 2.51527 24.8257 2.67929 25.6667 3.01469V5.85357ZM10.1111 11C10.1111 8.39634 11.8524 6.28571 13.9563 6.28571C16.0601 6.28571 17.8014 8.39634 17.8014 11C17.8014 13.6037 16.0601 15.7143 13.9563 15.7143C11.8524 15.7143 10.1111 13.6027 10.1111 11ZM2.33333 4.98929C3.30799 5.23482 4.31958 5.30848 5.36667 5.38705C5.06528 6.80134 3.82229 7.85714 2.33333 7.85714V4.98929ZM2.33333 16.1464C3.86604 16.3429 5.05556 17.6491 5.05556 19.25C5.05556 19.3584 5.03375 19.4593 5.02274 19.5644C4.0809 19.4857 3.17674 19.3188 2.33333 18.9848V16.1464ZM25.6667 17.0107C24.692 16.7642 23.6809 16.6473 22.6314 16.611C22.9347 15.1987 24.1792 14.1429 25.6667 14.1429V17.0107Z" fill="white"/>
</svg>
