<svg width="26" height="29" viewBox="0 0 26 29" fill="none" xmlns="http://www.w3.org/2000/svg">
<path d="M21.45 6.95255C21.8049 6.35884 22.0268 5.69343 22.1 5.00332C22.2033 3.83385 21.8544 2.66944 21.1269 1.75548C20.3993 0.841522 19.35 0.249393 18.2 0.103884C17.5204 -0.0437203 16.8167 -0.0339166 16.1414 0.132563C15.4661 0.299043 14.8367 0.617899 14.3 1.06533C13.768 1.54151 13.3273 2.11301 13 2.75116C12.6727 2.11301 12.232 1.54151 11.7 1.06533C11.1633 0.617899 10.5339 0.299043 9.85857 0.132563C9.18327 -0.0339166 8.47957 -0.0437203 7.8 0.103884C6.65 0.249393 5.60067 0.841522 4.87315 1.75548C4.14563 2.66944 3.79673 3.83385 3.9 5.00332C3.97323 5.69343 4.19512 6.35884 4.55 6.95255C3.2368 7.37092 2.08862 8.20088 1.27091 9.32282C0.453195 10.4448 0.00818354 11.8007 0 13.1954V22.4147C0 23.2795 0.168127 24.1359 0.494783 24.9348C0.821439 25.7338 1.30023 26.4597 1.90381 27.0712C3.12279 28.3062 4.77609 29 6.5 29H19.5C20.3536 29 21.1988 28.8297 21.9874 28.4987C22.7761 28.1678 23.4926 27.6827 24.0962 27.0712C24.6998 26.4597 25.1786 25.7338 25.5052 24.9348C25.8319 24.1359 26 23.2795 26 22.4147V13.1954C25.9918 11.8007 25.5468 10.4448 24.7291 9.32282C23.9114 8.20088 22.7632 7.37092 21.45 6.95255ZM16.003 3.09359C16.241 2.89064 16.5219 2.74588 16.824 2.67051C17.126 2.59514 17.4412 2.59119 17.745 2.65896C18.0013 2.6714 18.2522 2.73745 18.4821 2.85295C18.7119 2.96845 18.9157 3.1309 19.0805 3.33008C19.2454 3.52925 19.3678 3.76085 19.44 4.01028C19.5121 4.25972 19.5326 4.52159 19.5 4.77942C19.4774 5.04815 19.4018 5.30955 19.2776 5.54813C19.1535 5.78671 18.9833 5.99761 18.7772 6.16834C18.5711 6.33906 18.3333 6.46613 18.0778 6.54202C17.8224 6.6179 17.5545 6.64106 17.29 6.61012H14.443C14.5776 5.29886 15.1244 4.0661 16.003 3.09359ZM8.203 2.69848C8.37175 2.68542 8.54125 2.68542 8.71 2.69848C9.15966 2.68945 9.59769 2.8436 9.945 3.1331C10.835 4.08802 11.3999 5.30648 11.557 6.61012H8.71C8.44554 6.64106 8.17764 6.6179 7.92218 6.54202C7.66672 6.46613 7.42889 6.33906 7.2228 6.16834C7.01671 5.99761 6.84654 5.78671 6.72238 5.54813C6.59822 5.30955 6.5226 5.04815 6.5 4.77942C6.46939 4.52192 6.49123 4.2608 6.56418 4.01219C6.63712 3.76358 6.75963 3.53277 6.92411 3.33404C7.0886 3.1353 7.29157 2.97285 7.52049 2.85674C7.7494 2.74062 7.99939 2.67331 8.255 2.65896L8.203 2.69848ZM19.5 23.7318H14.3C13.9552 23.7318 13.6246 23.593 13.3808 23.346C13.137 23.099 13 22.764 13 22.4147C13 22.0654 13.137 21.7304 13.3808 21.4834C13.6246 21.2365 13.9552 21.0977 14.3 21.0977H19.5C19.8448 21.0977 20.1754 21.2365 20.4192 21.4834C20.663 21.7304 20.8 22.0654 20.8 22.4147C20.8 22.764 20.663 23.099 20.4192 23.346C20.1754 23.593 19.8448 23.7318 19.5 23.7318Z" fill="white"/>
</svg>
