<svg width="20" height="20" viewBox="0 0 20 20" fill="none" xmlns="http://www.w3.org/2000/svg">
<g clip-path="url(#clip0_0_624)">
<path d="M17.5474 5.98369C17.5551 6.15969 17.5551 6.32769 17.5551 6.50369C17.5629 11.8397 13.6425 17.9997 6.47312 17.9997C4.35858 17.9997 2.28263 17.3677 0.499933 16.1837C0.808624 16.2237 1.11732 16.2397 1.42601 16.2397C3.17783 16.2397 4.88335 15.6317 6.26475 14.5037C4.59781 14.4717 3.13153 13.3437 2.62219 11.6957C3.2087 11.8157 3.81065 11.7917 4.38173 11.6237C2.56817 11.2557 1.26394 9.59969 1.25623 7.67169C1.25623 7.65569 1.25623 7.63969 1.25623 7.62369C1.79644 7.93569 2.4061 8.11169 3.02349 8.12769C1.31797 6.94369 0.785473 4.58368 1.81959 2.73568C3.80293 5.26369 6.72007 6.79169 9.85329 6.95969C9.53688 5.55969 9.96905 4.08768 10.98 3.09568C12.5466 1.56768 15.0162 1.64768 16.4979 3.27168C17.3699 3.09568 18.2111 2.75968 18.9751 2.28768C18.6819 3.22368 18.0722 4.01568 17.2619 4.51968C18.0336 4.42368 18.7899 4.20768 19.4999 3.88768C18.9751 4.70368 18.3114 5.40769 17.5474 5.98369Z" fill="white"/>
</g>
<defs>
<clipPath id="clip0_0_624">
<rect width="19.9978" height="19.9978" fill="white"/>
</clipPath>
</defs>
</svg>
