<svg width="31" height="29" viewBox="0 0 31 29" fill="none" xmlns="http://www.w3.org/2000/svg">
<path d="M25.8574 14.0389C24.9722 13.9841 24.0887 14.1689 23.2997 14.5739C22.5108 14.9789 21.8455 15.5891 21.3741 16.3402C21.3438 16.3903 21.3012 16.4317 21.2502 16.4605C21.1992 16.4892 21.1417 16.5043 21.0832 16.5043C21.0247 16.5043 20.9672 16.4892 20.9162 16.4605C20.8652 16.4317 20.8225 16.3903 20.7923 16.3402C20.2889 15.5354 19.5633 14.8935 18.7031 14.4921C17.8428 14.0908 16.8848 13.9471 15.9446 14.0785C13.4186 14.4472 11.5985 16.8863 11.5985 19.6238C11.5852 20.774 11.8611 21.9092 12.4009 22.925C12.9407 23.9408 13.7271 24.8047 14.6878 25.4374L19.6274 28.5725C20.0617 28.8517 20.5671 29.0001 21.0833 29.0001C21.5996 29.0001 22.105 28.8517 22.5393 28.5725L27.479 25.4374C28.4397 24.8047 29.2261 23.9408 29.7659 22.925C30.3056 21.9092 30.5815 20.774 30.5681 19.6238C30.5679 16.7391 28.538 14.2297 25.8574 14.0389Z" fill="white"/>
<path d="M15.7453 12.7138C15.9394 12.6854 16.0438 12.4631 15.923 12.3085C15.0728 11.2203 13.9512 10.371 12.6677 9.84788C12.5243 9.78614 12.4021 9.68373 12.3162 9.5533C12.2304 9.42288 12.1846 9.27017 12.1846 9.11403C12.1837 9.00245 12.2056 8.89186 12.2491 8.7891C12.2926 8.68635 12.3568 8.59363 12.4376 8.51668C12.487 8.46963 12.5342 8.42329 12.5696 8.386C12.8199 8.12258 13.0406 7.83263 13.228 7.52132C13.7209 6.69892 13.9653 5.75143 13.9316 4.79321C13.898 3.83499 13.5878 2.90698 13.0384 2.12118C12.489 1.33537 11.7239 0.725351 10.8355 0.364735C9.94709 0.0041197 8.9733 -0.0916814 8.03165 0.0888935C7.07203 0.256835 6.18515 0.70963 5.48634 1.3884C4.78753 2.06716 4.30913 2.94049 4.11334 3.89481C3.93248 4.71655 3.96332 5.57076 4.20294 6.37732C4.44257 7.18388 4.88313 7.91636 5.48331 8.50605C5.56477 8.58324 5.62997 8.67592 5.6751 8.77866C5.72023 8.8814 5.74437 8.99212 5.7461 9.10432V9.10846C5.74754 9.26589 5.70248 9.42025 5.61655 9.55217C5.53062 9.68409 5.40766 9.78771 5.26308 9.85003C3.28386 10.6699 1.70552 12.2339 0.867576 14.2055C0.278566 15.5559 -0.0168973 17.0159 0.000746085 18.4891V19.5509C0.000739376 19.7784 0.0455558 20.0038 0.132636 20.214C0.219717 20.4243 0.347356 20.6153 0.508266 20.7762C0.669176 20.9371 0.860206 21.0648 1.07045 21.1519C1.28069 21.239 1.50602 21.2838 1.73359 21.2838H8.71422C9.57849 21.2838 10.2205 20.4883 10.2193 19.624C10.2193 16.1446 12.595 13.1738 15.7453 12.7138ZM6.93758 6.89623C6.81661 6.77767 6.74769 6.61592 6.74598 6.44655C6.74427 6.27718 6.80991 6.11407 6.92846 5.9931C7.04702 5.87213 7.20877 5.80321 7.37814 5.8015C7.54751 5.79979 7.71062 5.86543 7.83159 5.98398C7.97972 6.14548 8.15976 6.27446 8.36032 6.36276C8.56088 6.45107 8.77759 6.49677 8.99673 6.49698C9.21587 6.4972 9.43267 6.45191 9.6334 6.36399C9.83413 6.27607 10.0144 6.14744 10.1629 5.98623C10.2224 5.92629 10.2932 5.87875 10.3712 5.84636C10.4492 5.81398 10.5329 5.79739 10.6173 5.79757C10.7018 5.79774 10.7854 5.81468 10.8633 5.84738C10.9412 5.88009 11.0118 5.92792 11.071 5.98811C11.1303 6.0483 11.177 6.11965 11.2085 6.19803C11.24 6.27641 11.2557 6.36026 11.2545 6.44472C11.2534 6.52918 11.2355 6.61258 11.2019 6.69008C11.1683 6.76758 11.1197 6.83765 11.0589 6.89623C10.8023 7.17239 10.4928 7.39408 10.1487 7.5481C9.80468 7.70212 9.43315 7.78532 9.05628 7.79274C8.26261 7.77015 7.50641 7.45017 6.93758 6.89623Z" fill="white"/>
</svg>
