<svg width="32" height="29" viewBox="0 0 32 29" fill="none" xmlns="http://www.w3.org/2000/svg">
<path d="M15.2936 14.1891C15.6825 14.6082 16.3158 14.6082 16.7102 14.1891L22.7599 7.72101C24.5153 5.84062 24.4153 2.72552 22.4488 0.99239C20.7377 -0.519851 18.1879 -0.247988 16.6213 1.4285L15.9991 2.09117L15.3825 1.43417C13.8159 -0.247988 11.266 -0.519851 9.55503 0.99239C7.59403 2.72552 7.48848 5.84062 9.24393 7.72101L15.2936 14.1891ZM31.4038 18.5842C30.7483 17.9782 29.7261 18.0178 29.0373 18.5842L23.9042 22.7698C23.2765 23.2852 22.4932 23.5627 21.6821 23.5627H15.1103C14.6214 23.5627 14.2214 23.1549 14.2214 22.6565C14.2214 22.1581 14.6214 21.7503 15.1103 21.7503H19.46C20.3433 21.7503 21.1655 21.1329 21.3099 20.2437C21.4933 19.111 20.6378 18.1255 19.5545 18.1255H10.6661C9.16616 18.1255 7.71624 18.6522 6.54964 19.615L3.96645 21.7503H0.88884C0.399978 21.7503 0 22.1581 0 22.6565V28.0938C0 28.5922 0.399978 29 0.88884 29H20.71C21.5155 29 22.2988 28.7225 22.9321 28.2071L31.3316 21.3538C32.176 20.6685 32.2427 19.3545 31.4038 18.5842Z" fill="white"/>
</svg>
