<svg width="20" height="20" viewBox="0 0 20 20" fill="none" xmlns="http://www.w3.org/2000/svg">
<g clip-path="url(#clip0_0_628)">
<path d="M9.99999 1.8023C12.6717 1.8023 12.9853 1.81421 14.0413 1.86185C15.0179 1.90551 15.5458 2.06828 15.8992 2.20722C16.3676 2.38983 16.7011 2.6042 17.0504 2.95355C17.3997 3.30289 17.6181 3.63636 17.7967 4.1048C17.9317 4.45811 18.0984 4.9861 18.1421 5.96267C18.1897 7.01865 18.2017 7.33226 18.2017 10.004C18.2017 12.6756 18.1897 12.9893 18.1421 14.0452C18.0984 15.0218 17.9357 15.5498 17.7967 15.9031C17.6141 16.3715 17.3997 16.705 17.0504 17.0544C16.7011 17.4037 16.3676 17.622 15.8992 17.8007C15.5458 17.9357 15.0179 18.1024 14.0413 18.1461C12.9853 18.1937 12.6717 18.2056 9.99999 18.2056C7.3283 18.2056 7.01468 18.1937 5.95871 18.1461C4.98213 18.1024 4.45414 17.9396 4.10083 17.8007C3.63239 17.6181 3.29893 17.4037 2.94958 17.0544C2.60024 16.705 2.3819 16.3715 2.20325 15.9031C2.06828 15.5498 1.90155 15.0218 1.85788 14.0452C1.81024 12.9893 1.79833 12.6756 1.79833 10.004C1.79833 7.33226 1.81024 7.01865 1.85788 5.96267C1.90155 4.9861 2.06431 4.45811 2.20325 4.1048C2.38587 3.63636 2.60024 3.30289 2.94958 2.95355C3.29893 2.6042 3.63239 2.38586 4.10083 2.20722C4.45414 2.07225 4.98213 1.90551 5.95871 1.86185C7.01468 1.81024 7.33227 1.8023 9.99999 1.8023ZM9.99999 0C7.28463 0 6.94323 0.0119095 5.87534 0.0595473C4.81143 0.107185 4.08495 0.277888 3.44978 0.524017C2.79079 0.778085 2.23501 1.12346 1.67924 1.67924C1.12346 2.23501 0.782056 2.79476 0.524017 3.44978C0.277888 4.08495 0.107185 4.81143 0.0595474 5.87931C0.0119095 6.94322 0 7.28462 0 9.99998C0 12.7153 0.0119095 13.0567 0.0595474 14.1246C0.107185 15.1885 0.277888 15.915 0.524017 16.5542C0.778086 17.2132 1.12346 17.7689 1.67924 18.3247C2.23501 18.8805 2.79476 19.2219 3.44978 19.4799C4.08495 19.726 4.81143 19.8968 5.87931 19.9444C6.9472 19.992 7.28463 20.0039 10.004 20.0039C12.7233 20.0039 13.0607 19.992 14.1286 19.9444C15.1925 19.8968 15.919 19.726 16.5581 19.4799C17.2171 19.2259 17.7729 18.8805 18.3287 18.3247C18.8845 17.7689 19.2259 17.2092 19.4839 16.5542C19.73 15.919 19.9007 15.1925 19.9484 14.1246C19.996 13.0567 20.0079 12.7193 20.0079 9.99998C20.0079 7.28065 19.996 6.94322 19.9484 5.87534C19.9007 4.81143 19.73 4.08495 19.4839 3.44581C19.2298 2.78682 18.8845 2.23104 18.3287 1.67527C17.7729 1.11949 17.2132 0.778085 16.5581 0.520047C15.923 0.273918 15.1965 0.103215 14.1286 0.0555775C13.0568 0.0119095 12.7154 0 9.99999 0Z" fill="white"/>
<path d="M9.99999 1.8023C12.6717 1.8023 12.9853 1.81421 14.0413 1.86185C15.0179 1.90551 15.5458 2.06828 15.8992 2.20722C16.3676 2.38983 16.7011 2.6042 17.0504 2.95355C17.3997 3.30289 17.6181 3.63636 17.7967 4.1048C17.9317 4.45811 18.0984 4.9861 18.1421 5.96267C18.1897 7.01865 18.2017 7.33226 18.2017 10.004C18.2017 12.6756 18.1897 12.9893 18.1421 14.0452C18.0984 15.0218 17.9357 15.5498 17.7967 15.9031C17.6141 16.3715 17.3997 16.705 17.0504 17.0544C16.7011 17.4037 16.3676 17.622 15.8992 17.8007C15.5458 17.9357 15.0179 18.1024 14.0413 18.1461C12.9853 18.1937 12.6717 18.2056 9.99999 18.2056C7.3283 18.2056 7.01468 18.1937 5.95871 18.1461C4.98213 18.1024 4.45414 17.9396 4.10083 17.8007C3.63239 17.6181 3.29893 17.4037 2.94958 17.0544C2.60024 16.705 2.3819 16.3715 2.20325 15.9031C2.06828 15.5498 1.90155 15.0218 1.85788 14.0452C1.81024 12.9893 1.79833 12.6756 1.79833 10.004C1.79833 7.33226 1.81024 7.01865 1.85788 5.96267C1.90155 4.9861 2.06431 4.45811 2.20325 4.1048C2.38587 3.63636 2.60024 3.30289 2.94958 2.95355C3.29893 2.6042 3.63239 2.38586 4.10083 2.20722C4.45414 2.07225 4.98213 1.90551 5.95871 1.86185C7.01468 1.81024 7.33227 1.8023 9.99999 1.8023Z" fill="white"/>
<path d="M10 4.86675C7.16558 4.86675 4.86308 7.16527 4.86308 10.0037C4.86308 12.8421 7.16161 15.1406 10 15.1406C12.8385 15.1406 15.137 12.8421 15.137 10.0037C15.137 7.16527 12.8385 4.86675 10 4.86675ZM10 13.3344C8.15804 13.3344 6.66538 11.8417 6.66538 9.99972C6.66538 8.15773 8.15804 6.66507 10 6.66507C11.842 6.66507 13.3347 8.15773 13.3347 9.99972C13.3347 11.8417 11.842 13.3344 10 13.3344Z" fill="#FF91B0"/>
<path d="M15.3394 5.85909C16.0015 5.85909 16.5382 5.32233 16.5382 4.6602C16.5382 3.99808 16.0015 3.46132 15.3394 3.46132C14.6772 3.46132 14.1405 3.99808 14.1405 4.6602C14.1405 5.32233 14.6772 5.85909 15.3394 5.85909Z" fill="#FF91B0"/>
</g>
<defs>
<clipPath id="clip0_0_628">
<rect width="19.9978" height="19.9978" fill="white"/>
</clipPath>
</defs>
</svg>
